<svg width="35" height="40" viewBox="0 0 35 40" fill="none" xmlns="http://www.w3.org/2000/svg">
<path d="M14.5605 35.1603H0V30.4447C0 29.4519 0.41365 28.5005 1.19959 27.88C5.46019 24.364 10.0931 22.0476 11.0031 21.5926C11.1272 21.5512 11.1686 21.4271 11.1686 21.303V18.8625C10.5481 17.787 10.1758 16.5874 10.0103 15.5119C9.63805 15.4705 9.14167 14.9741 8.60393 13.0714C7.94209 10.6722 8.56256 10.1758 9.18304 10.1758C9.2244 10.1758 9.26577 10.1758 9.30713 10.1758C8.81075 8.81075 8.81075 7.48707 9.14167 6.28749C9.4726 4.83971 10.2585 3.68149 11.1272 2.77146C11.6649 2.19235 12.3268 1.6546 12.9886 1.24095C13.5264 0.868666 14.1468 0.537746 14.7673 0.33092C15.3051 0.16546 15.8428 0.0413651 16.4219 0.0413651C16.6701 9.24581e-09 16.8769 0 17.1251 0C18.5729 0 19.6898 0.41365 20.5171 0.910031C21.9648 1.69597 22.5026 2.77146 22.5026 2.77146C22.5026 2.77146 26.1427 3.01965 24.5295 10.6308C25.0259 10.7963 25.3568 11.4581 24.7777 13.485C24.2399 15.4292 23.7022 15.9255 23.3299 15.9255C23.2058 15.9255 23.1231 15.8842 23.0403 15.8428C22.8749 16.7115 22.6267 17.6215 22.213 18.4902C22.213 19.7311 22.213 20.8893 22.213 21.3444C22.213 21.4685 22.2958 21.5512 22.3785 21.6339C22.7921 21.8407 23.9917 22.4612 25.605 23.3713C25.4809 23.4953 25.3154 23.6194 25.1913 23.7435C24.0745 24.819 23.4953 26.2254 23.4953 27.8387C23.4953 29.7415 24.1572 30.9411 24.8604 31.6856C24.4054 31.8097 24.0331 32.0579 23.7022 32.3888C23.2472 32.8852 22.999 33.5057 23.0403 34.1675C23.0403 34.5398 23.1231 34.8707 23.1644 35.2017H18.9452H14.5605V35.1603ZM30.9824 21.9235H29.576C29.3692 21.9235 29.2037 22.0889 29.2037 22.2958V23.9504C28.1282 24.1158 27.3009 24.4881 26.6391 25.1086C25.9359 25.8118 25.5636 26.6805 25.5636 27.7559C25.5636 28.9555 25.8945 29.8242 26.5977 30.4447C27.3009 31.0651 28.3764 31.6443 29.8656 32.2647C30.486 32.5129 30.8997 32.8025 31.1479 33.092C31.3961 33.3816 31.5202 33.7539 31.5202 34.2503C31.5202 34.6639 31.3961 35.0362 31.1479 35.2844C30.8997 35.5326 30.5688 35.698 30.1138 35.698C29.576 35.698 29.121 35.5326 28.7901 35.1603C28.5005 34.8707 28.3351 34.4571 28.2937 33.878C28.2937 33.6711 28.0869 33.4643 27.8387 33.4643L25.5636 33.5057C25.3154 33.5057 25.1086 33.7125 25.1086 33.9607C25.1499 35.1603 25.5636 36.1117 26.2668 36.7735C27.0527 37.4767 28.0455 37.8904 29.2037 38.0558V39.6277C29.2037 39.8345 29.3692 40 29.576 40H30.9824C31.1892 40 31.3547 39.8345 31.3547 39.6277V38.0145C32.3061 37.849 33.0507 37.4767 33.6711 36.8976C34.3744 36.2358 34.7053 35.3257 34.7053 34.2503C34.7053 33.092 34.3744 32.182 33.6711 31.5615C32.9679 30.9411 31.8924 30.3206 30.4033 29.7001C29.7828 29.4105 29.3278 29.1624 29.121 28.8728C28.8728 28.5832 28.7901 28.2523 28.7901 27.7973C28.7901 27.3837 28.9142 27.0114 29.121 26.7218C29.3278 26.4323 29.6587 26.3082 30.1138 26.3082C30.5688 26.3082 30.8997 26.4736 31.1892 26.8046C31.3961 27.0941 31.5202 27.4664 31.5615 27.9628C31.5615 28.1696 31.7684 28.3351 32.0165 28.3351L34.2916 28.2937C34.5398 28.2937 34.7466 28.0869 34.7466 27.8387C34.7053 26.8459 34.3743 26.0186 33.7952 25.3154C33.1748 24.6122 32.3888 24.1572 31.3961 23.9504V22.213C31.3961 22.0889 31.1892 21.9235 30.9824 21.9235Z" fill="#FF5A3C"/>
</svg>
