<svg width="16" height="12" viewBox="0 0 16 12" fill="none" xmlns="http://www.w3.org/2000/svg">
<path fill-rule="evenodd" clip-rule="evenodd" d="M0.160585 3.08754C-0.0728679 5.14816 -0.0624617 7.52474 0.262391 9.577C0.442139 10.7126 1.4177 11.5831 2.62192 11.6826L3.88045 11.7865C6.50465 12.0032 9.14371 12.0032 11.7679 11.7865L13.0264 11.6826C14.2307 11.5831 15.2062 10.7126 15.386 9.577C15.7108 7.52473 15.7212 5.1483 15.4878 3.08766C15.4576 2.84877 15.4237 2.6102 15.386 2.37202C15.2062 1.23646 14.2307 0.365912 13.0264 0.266465L11.7679 0.162533C9.1437 -0.0541779 6.50465 -0.0541778 3.88045 0.162534L2.62192 0.266465C1.4177 0.365912 0.442139 1.23646 0.262391 2.37202C0.224697 2.61015 0.190762 2.84869 0.160585 3.08754ZM3.9887 1.34557C6.54087 1.13481 9.10748 1.13481 11.6597 1.34557L12.9182 1.4495C13.5468 1.50141 14.056 1.95585 14.1499 2.54861C14.1596 2.61017 14.1691 2.67175 14.1783 2.73337L9.54414 5.17918C8.47447 5.74372 7.17383 5.74372 6.10416 5.17918L1.47005 2.7334C1.47927 2.67177 1.48875 2.61018 1.49849 2.54861C1.59232 1.95584 2.10157 1.50141 2.73017 1.4495L3.9887 1.34557ZM14.3313 4.01109C14.4929 5.80639 14.4324 7.61523 14.1499 9.40041C14.056 9.99317 13.5468 10.4476 12.9182 10.4995L11.6597 10.6034C9.10749 10.8142 6.54087 10.8142 3.9887 10.6034L2.73017 10.4995C2.10157 10.4476 1.59232 9.99317 1.49849 9.40041C1.21592 7.61524 1.15545 5.80641 1.31709 4.01112L5.49711 6.21724C6.9443 6.98103 8.704 6.98104 10.1512 6.21724L14.3313 4.01109Z" fill="#FF5A3C"/>
</svg>
