<svg width="120" height="120" viewBox="0 0 120 120" fill="none" xmlns="http://www.w3.org/2000/svg">
<rect width="120" height="120" fill="#071C1F"/>
<path d="M60 32L65.2959 41.7108L76.168 43.7467L68.569 51.7842L69.9923 62.7533L60 58.01L50.0077 62.7533L51.431 51.7842L43.832 43.7467L54.7041 41.7108L60 32Z" fill="#FF5A3C"/>
<path d="M21.4975 85.1392C23.4364 85.1392 24.8583 83.7074 24.8583 81.7585C24.8583 79.7848 23.4862 78.3381 21.6168 78.3381C20.9308 78.3381 20.2646 78.5817 19.8469 78.9148H19.7873L20.1452 75.9119H24.4009V74.8182H19.1112L18.4947 79.8295L19.6481 79.9688C20.0707 79.6655 20.7915 79.4467 21.418 79.4517C22.7156 79.4616 23.6651 80.446 23.6651 81.7784C23.6651 83.0859 22.7504 84.0455 21.4975 84.0455C20.4535 84.0455 19.6232 83.3743 19.5288 82.4545H18.3356C18.4102 84.0057 19.7475 85.1392 21.4975 85.1392ZM36.5179 77.3636H37.7111C37.6564 75.8274 36.2395 74.679 34.2708 74.679C32.3219 74.679 30.7907 75.8125 30.7907 77.5227C30.7907 78.8949 31.785 79.7102 33.3759 80.1676L34.6287 80.5256C35.7026 80.8239 36.6571 81.2017 36.6571 82.2159C36.6571 83.3295 35.5833 84.0653 34.1713 84.0653C32.9583 84.0653 31.8844 83.5284 31.785 82.375H30.5123C30.6316 84.0455 31.9838 85.179 34.1713 85.179C36.5179 85.179 37.8503 83.8864 37.8503 82.2358C37.8503 80.3267 36.0407 79.7102 34.9867 79.4318L33.9526 79.1534C33.1969 78.9545 31.9838 78.5568 31.9838 77.4631C31.9838 76.4886 32.8787 75.7727 34.231 75.7727C35.464 75.7727 36.3986 76.3594 36.5179 77.3636ZM43.0394 77.3636H41.4087V75.5341H40.2354V77.3636H39.082V78.358H40.2354V83.1307C40.2354 84.4631 41.3093 85.0994 42.3036 85.0994C42.7411 85.0994 43.0195 85.0199 43.1786 84.9602L42.94 83.9062C42.8406 83.9261 42.6815 83.9659 42.4229 83.9659C41.9059 83.9659 41.4087 83.8068 41.4087 82.8125V78.358H43.0394V77.3636ZM47.0515 85.179C48.3839 85.179 49.0799 84.4631 49.3185 83.9659H49.3782V85H50.5515V79.9688C50.5515 77.5426 48.7021 77.2642 47.7276 77.2642C46.5742 77.2642 45.2617 77.6619 44.6651 79.054L45.7788 79.4517C46.0373 78.8949 46.6488 78.2983 47.7674 78.2983C48.8462 78.2983 49.3782 78.87 49.3782 79.8494V79.8892C49.3782 80.456 48.8015 80.4062 47.4094 80.5852C45.9925 80.7692 44.4464 81.0824 44.4464 82.8324C44.4464 84.3239 45.5998 85.179 47.0515 85.179ZM47.2305 84.125C46.2958 84.125 45.6197 83.7074 45.6197 82.892C45.6197 81.9972 46.435 81.7188 47.3498 81.5994C47.8469 81.5398 49.1793 81.4006 49.3782 81.1619V82.2358C49.3782 83.1903 48.6225 84.125 47.2305 84.125ZM52.693 85H53.8663V80.1676C53.8663 79.1335 54.6816 78.3778 55.7953 78.3778C56.1085 78.3778 56.4316 78.4375 56.5112 78.4574V77.2642C56.377 77.2543 56.0687 77.2443 55.8947 77.2443C54.9799 77.2443 54.1845 77.7614 53.9061 78.517H53.8265V77.3636H52.693V85ZM61.9986 85H63.2315V81.0227H65.4588C65.5483 81.0227 65.6328 81.0227 65.7173 81.0178L67.8651 85H69.2969L66.995 80.794C68.2926 80.3516 68.8991 79.2926 68.8991 77.9403C68.8991 76.1406 67.8253 74.8182 65.4389 74.8182H61.9986V85ZM63.2315 79.9091V75.9119H65.3991C67.0497 75.9119 67.6861 76.7173 67.6861 77.9403C67.6861 79.1634 67.0497 79.9091 65.419 79.9091H63.2315ZM73.0417 85.179C74.3741 85.179 75.0701 84.4631 75.3088 83.9659H75.3684V85H76.5417V79.9688C76.5417 77.5426 74.6923 77.2642 73.7179 77.2642C72.5645 77.2642 71.252 77.6619 70.6554 79.054L71.769 79.4517C72.0275 78.8949 72.639 78.2983 73.7576 78.2983C74.8365 78.2983 75.3684 78.87 75.3684 79.8494V79.8892C75.3684 80.456 74.7917 80.4062 73.3997 80.5852C71.9828 80.7692 70.4366 81.0824 70.4366 82.8324C70.4366 84.3239 71.59 85.179 73.0417 85.179ZM73.2207 84.125C72.286 84.125 71.6099 83.7074 71.6099 82.892C71.6099 81.9972 72.4252 81.7188 73.34 81.5994C73.8372 81.5398 75.1696 81.4006 75.3684 81.1619V82.2358C75.3684 83.1903 74.6127 84.125 73.2207 84.125ZM82.0043 77.3636H80.3736V75.5341H79.2003V77.3636H78.0469V78.358H79.2003V83.1307C79.2003 84.4631 80.2741 85.0994 81.2685 85.0994C81.706 85.0994 81.9844 85.0199 82.1435 84.9602L81.9048 83.9062C81.8054 83.9261 81.6463 83.9659 81.3878 83.9659C80.8707 83.9659 80.3736 83.8068 80.3736 82.8125V78.358H82.0043V77.3636ZM83.7692 85H84.9425V77.3636H83.7692V85ZM84.3658 76.0909C84.8232 76.0909 85.201 75.733 85.201 75.2955C85.201 74.858 84.8232 74.5 84.3658 74.5C83.9084 74.5 83.5305 74.858 83.5305 75.2955C83.5305 75.733 83.9084 76.0909 84.3658 76.0909ZM88.2647 80.4062C88.2647 79.0739 89.09 78.3182 90.2136 78.3182C91.3024 78.3182 91.9636 79.0291 91.9636 80.2273V85H93.1369V80.1477C93.1369 78.1989 92.0978 77.2642 90.5517 77.2642C89.3983 77.2642 88.6824 77.7812 88.3244 78.5568H88.225V77.3636H87.0914V85H88.2647V80.4062ZM98.3633 88.0227C100.193 88.0227 101.664 87.1875 101.664 85.2188V77.3636H100.531V78.5767H100.412C100.153 78.179 99.6758 77.2642 98.1843 77.2642C96.2553 77.2642 94.9229 78.7955 94.9229 81.142C94.9229 83.5284 96.315 84.8807 98.1644 84.8807C99.6559 84.8807 100.133 84.0057 100.392 83.5881H100.491V85.1392C100.491 86.4119 99.5962 86.9886 98.3633 86.9886C96.9762 86.9886 96.489 86.2578 96.1758 85.8352L95.2411 86.4915C95.7184 87.2919 96.658 88.0227 98.3633 88.0227ZM98.3235 83.8267C96.8519 83.8267 96.0962 82.7131 96.0962 81.1222C96.0962 79.571 96.832 78.3182 98.3235 78.3182C99.7553 78.3182 100.511 79.4716 100.511 81.1222C100.511 82.8125 99.7354 83.8267 98.3235 83.8267Z" fill="white"/>
</svg>
